<svg width="460" height="300" viewBox="0 0 460 300" fill="none" xmlns="http://www.w3.org/2000/svg" role="img" aria-label="Field and office in sync illustration">

  
  <circle cx="78" cy="58" r="112" stroke="#FFFFFF" stroke-opacity="0.06" stroke-width="1"></circle>
  <circle cx="402" cy="252" r="128" stroke="#FFFFFF" stroke-opacity="0.05" stroke-width="1"></circle>
  <circle cx="232" cy="150" r="92" stroke="#FFFFFF" stroke-opacity="0.07" stroke-width="1"></circle>

  
  <circle cx="36" cy="200" r="1.5" fill="#FFFFFF" fill-opacity="0.2"></circle>
  <circle cx="150" cy="48" r="1.5" fill="#FFFFFF" fill-opacity="0.2"></circle>
  <circle cx="252" cy="42" r="1.5" fill="#FFFFFF" fill-opacity="0.2"></circle>
  <circle cx="430" cy="120" r="1.5" fill="#FFFFFF" fill-opacity="0.2"></circle>
  <circle cx="338" cy="232" r="1.5" fill="#FFFFFF" fill-opacity="0.2"></circle>
  <circle cx="92" cy="252" r="1.5" fill="#FFFFFF" fill-opacity="0.2"></circle>

  
  <path d="M110 150 C 160 180, 220 90, 270 120" stroke="#FFFFFF" stroke-opacity="0.25" stroke-width="1.5" stroke-dasharray="6 4" fill="none"></path>
  <circle cx="149" cy="154" r="3" fill="#FFFFFF" fill-opacity="0.4"></circle>
  <circle cx="190" cy="135" r="3" fill="#FFFFFF" fill-opacity="0.4"></circle>
  <circle cx="231" cy="116" r="3" fill="#FFFFFF" fill-opacity="0.4"></circle>

  
  <rect x="40" y="90" width="70" height="120" rx="11" stroke="#FFFFFF" stroke-opacity="0.6" stroke-width="1.5" fill="none"></rect>
  <line x1="52" y1="112" x2="98" y2="112" stroke="#FFFFFF" stroke-opacity="0.3" stroke-width="1.5"></line>
  <line x1="52" y1="128" x2="98" y2="128" stroke="#FFFFFF" stroke-opacity="0.3" stroke-width="1.5"></line>
  <line x1="52" y1="144" x2="98" y2="144" stroke="#FFFFFF" stroke-opacity="0.3" stroke-width="1.5"></line>
  <line x1="52" y1="160" x2="82" y2="160" stroke="#FFFFFF" stroke-opacity="0.3" stroke-width="1.5"></line>
  <circle cx="95" cy="194" r="5" fill="#A0BDE4" fill-opacity="0.8"></circle>

  
  <rect x="270" y="70" width="150" height="100" rx="8" stroke="#FFFFFF" stroke-opacity="0.6" stroke-width="1.5" fill="none"></rect>
  <line x1="345" y1="170" x2="345" y2="186" stroke="#FFFFFF" stroke-opacity="0.6" stroke-width="1.5"></line>
  <line x1="324" y1="187" x2="366" y2="187" stroke="#FFFFFF" stroke-opacity="0.6" stroke-width="1.5"></line>
  
  <rect x="285" y="85" width="60" height="26" rx="4" stroke="#FFFFFF" stroke-opacity="0.3" stroke-width="1.5" fill="none"></rect>
  <rect x="355" y="85" width="50" height="26" rx="4" stroke="#FFFFFF" stroke-opacity="0.3" stroke-width="1.5" fill="none"></rect>
  
  <line x1="285" y1="128" x2="405" y2="128" stroke="#FFFFFF" stroke-opacity="0.3" stroke-width="1.5"></line>
  <line x1="285" y1="142" x2="405" y2="142" stroke="#FFFFFF" stroke-opacity="0.3" stroke-width="1.5"></line>
  <line x1="285" y1="156" x2="375" y2="156" stroke="#FFFFFF" stroke-opacity="0.3" stroke-width="1.5"></line>
  
  <circle cx="411" cy="80" r="4" fill="#6F99D4" fill-opacity="0.9">
    
  </circle>

</svg>